Coordinates
version=1
nRows=13
nColumns=40
inDegrees=yes

Units are S.I. units (second, meters, Newtons, ...)
If the header above contains a line with 'inDegrees', this indicates whether rotational values are in degrees (yes) or radians (no).

endheader
time	pelvis_tilt	pelvis_list	pelvis_rotation	pelvis_tx	pelvis_ty	pelvis_tz	hip_flexion_r	hip_adduction_r	hip_rotation_r	knee_angle_r	knee_angle_r_beta	ankle_angle_r	subtalar_angle_r	mtp_angle_r	hip_flexion_l	hip_adduction_l	hip_rotation_l	knee_angle_l	knee_angle_l_beta	ankle_angle_l	subtalar_angle_l	mtp_angle_l	lumbar_extension	lumbar_bending	lumbar_rotation	arm_flex_r	arm_add_r	arm_rot_r	elbow_flex_r	pro_sup_r	wrist_flex_r	wrist_dev_r	arm_flex_l	arm_add_l	arm_rot_l	elbow_flex_l	pro_sup_l	wrist_flex_l	wrist_dev_l
     12.02500000	      3.94635616	      8.23743668	      4.94285775	     -0.35525157	      1.06952394	      0.04314852	     30.38762068	    -15.29424298	     -1.75625861	     52.86983630	      0.92275272	    -23.71302013	    -19.78519051	      0.00000000	     78.54204520	     -2.82953967	     -2.88166001	     99.67573396	      1.73966974	     -3.61428162	    -10.17489833	      0.00000000	    -71.84126197	     -3.77933895	     -6.87718121	     86.27290911	     -9.69993112	      0.34246554	     47.90531866	     88.53134446	      0.00000000	      0.00000000	     89.90113322	     -0.76174955	      5.48032858	     45.30948720	     86.97561645	      0.00000000	      0.00000000
     12.03333333	      4.05383319	      7.97738016	      4.90251246	     -0.35583495	      1.06967960	      0.04293201	     30.89021191	    -15.09817862	     -1.64699845	     54.66428391	      0.95407174	    -23.61307979	    -19.60088060	      0.00000000	     77.85804846	     -2.87759003	     -2.93257688	     97.87064201	      1.70816494	     -3.83688784	     -9.98160033	      0.00000000	    -71.93313908	     -3.58805059	     -6.66420739	     86.59362557	     -9.60783951	      0.54040364	     47.48447134	     88.58501214	      0.00000000	      0.00000000	     89.90131100	     -0.97025831	      5.63660384	     45.53161410	     86.01065307	      0.00000000	      0.00000000
     12.04166667	      3.67212783	      7.60521965	      5.12383196	     -0.35657749	      1.06848685	      0.04241467	     32.12942959	    -14.87081732	     -1.58721764	     56.94019256	      0.99379384	    -23.58109536	    -21.09844608	      0.00000000	     77.81168752	     -2.61917149	     -2.72453975	     96.28569352	      1.68050237	     -3.97141496	    -10.53300456	      0.00000000	    -71.46187774	     -3.21691653	     -6.30584833	     86.47571559	     -9.70809582	      0.51578060	     47.91502838	     88.55342250	      0.00000000	      0.00000000	     89.90172509	     -0.83232060	      5.50346460	     45.36098349	     86.85878802	      0.00000000	      0.00000000
     12.05000000	      3.65420981	      7.35215661	      5.20527013	     -0.35708428	      1.06820893	      0.04187127	     32.87968336	    -14.75867529	     -1.50594914	     59.00543497	      1.02983912	    -23.32540921	    -21.68164412	      0.00000000	     77.12158545	     -2.40747329	     -2.64664026	     94.54909036	      1.65019293	     -4.09879910	    -10.88326230	      0.00000000	    -71.39518697	     -2.91400869	     -6.07270306	     86.56602278	     -9.70146114	      0.63859013	     47.99772989	     88.65854573	      0.00000000	      0.00000000	     89.90295226	     -0.98609556	      5.78468541	     45.37786137	     86.04518721	      0.00000000	      0.00000000
     12.05833333	      3.53300791	      6.93303003	      5.28245305	     -0.35769112	      1.06766063	      0.04141093	     33.80640904	    -14.53435807	     -1.54795022	     61.12111895	      1.06676477	    -23.08176942	    -21.91006914	      0.00000000	     76.52222325	     -2.38814208	     -2.47637505	     92.74441181	      1.61869535	     -4.36958137	    -10.89481671	      0.00000000	    -71.20188097	     -2.56346275	     -5.69018756	     86.71584103	     -9.59805350	      0.53049527	     47.87141443	     88.56280890	      0.00000000	      0.00000000	     89.90076947	     -0.88294480	      5.34602281	     45.34860563	     86.94869058	      0.00000000	      0.00000000
     12.06666667	      3.62711891	      6.38041637	      5.47418152	     -0.35797408	      1.06754141	      0.04089273	     34.36052531	    -14.21383255	     -1.96803518	     63.04829952	      1.10040041	    -23.17233821	    -23.32695802	      0.00000000	     75.65560323	     -2.31764294	     -2.07602191	     90.95293097	      1.58742811	     -4.51022523	    -10.68751698	      0.00000000	    -71.20644720	     -2.01322858	     -5.18646995	     86.80779184	     -9.70385001	      0.97062741	     47.95785781	     88.66223964	      0.00000000	      0.00000000	     89.90158414	     -1.04236745	      5.64662378	     45.33249660	     86.14628216	      0.00000000	      0.00000000
     12.07500000	      3.63630157	      5.89370779	      5.37370292	     -0.35825359	      1.06717284	      0.04058310	     35.22482486	    -13.81745581	     -1.72934761	     65.20689883	      1.13807508	    -22.32649945	    -22.18226227	      0.00000000	     74.67781014	     -2.65821801	     -1.98954306	     89.05445108	      1.55429338	     -4.40728857	    -10.12978449	      0.00000000	    -71.12382501	     -1.75807079	     -4.66543639	     86.86001866	     -9.61664305	      0.74048204	     48.05106244	     88.76239294	      0.00000000	      0.00000000	     89.89981338	     -0.99484926	      5.43752276	     45.21998143	     86.05722108	      0.00000000	      0.00000000
     12.08333333	      3.73519744	      5.79865107	      5.36256236	     -0.35838328	      1.06706359	      0.04004802	     36.02157470	    -13.96703349	     -1.63184129	     67.43412164	      1.17694745	    -22.02089845	    -22.03331198	      0.00000000	     73.44650955	     -2.60181430	     -2.12512933	     86.92583325	      1.51714200	     -4.83100627	     -9.89299131	      0.00000000	    -71.18327216	     -1.55820084	     -4.60965549	     87.13616585	     -9.38402293	      0.74011682	     47.53888393	     88.74061452	      0.00000000	      0.00000000	     89.89737593	     -1.18231553	      5.51632892	     45.28898789	     85.48830079	      0.00000000	      0.00000000
     12.09166667	      3.61203542	      5.70865792	      5.37496697	     -0.35881778	      1.06704451	      0.03939619	     37.08376416	    -14.00772856	     -1.38868429	     69.49924276	      1.21299061	    -21.71170053	    -23.10370640	      0.00000000	     72.34985600	     -2.25818321	     -2.17004935	     84.77772948	      1.47965051	     -5.34411769	    -11.07625474	      0.00000000	    -71.07597048	     -1.36015466	     -4.52290321	     87.19642618	     -9.40159414	      1.01472294	     47.75556273	     88.57370685	      0.00000000	      0.00000000	     89.89759502	     -1.13944290	      5.20685084	     45.21129490	     86.86690220	      0.00000000	      0.00000000
     12.10000000	      3.68142011	      5.46817419	      5.34962459	     -0.35875083	      1.06708897	      0.03898855	     37.91595833	    -13.93058259	     -1.26601206	     71.60590064	      1.24975873	    -21.33414319	    -23.23679680	      0.00000000	     71.02251107	     -2.27176893	     -2.15602595	     82.66254262	      1.44273354	     -5.60985086	    -11.02466609	      0.00000000	    -71.11833966	     -1.16895431	     -4.22550906	     87.23687488	     -9.42370863	      1.04264618	     47.83626308	     88.58273246	      0.00000000	      0.00000000	     89.89682271	     -1.10426944	      5.14752528	     45.15004076	     86.86605766	      0.00000000	      0.00000000
     12.10833333	      4.14453076	      5.11138456	      5.08186029	     -0.35824848	      1.06758638	      0.03877973	     38.29893618	    -13.59860493	     -1.13467288	     73.64322689	      1.28531678	    -20.84785998	    -23.35957792	      0.00000000	     69.26574652	     -2.47593701	     -1.97043847	     80.67777764	      1.40809285	     -5.77705007	    -11.05413779	      0.00000000	    -71.50655143	     -1.03814903	     -3.78123971	     87.33915239	     -9.37746337	      1.27985552	     47.85312892	     88.61775080	      0.00000000	      0.00000000	     89.89542072	     -1.26249771	      5.29831210	     45.05710976	     86.69821064	      0.00000000	      0.00000000
     12.11666667	      4.07368682	      4.84838577	      5.12222607	     -0.35850263	      1.06742331	      0.03798212	     39.35815272	    -13.60297881	     -1.09442651	     75.75245405	      1.32212974	    -20.47256608	    -23.56405776	      0.00000000	     67.90080814	     -2.32989935	     -1.83414494	     78.34894941	      1.36744713	     -6.08006314	    -11.10039210	      0.00000000	    -71.40152276	     -0.70313118	     -3.53378265	     87.52501398	     -9.31931620	      1.50604192	     47.73108652	     88.59194764	      0.00000000	      0.00000000	     89.89412253	     -1.34825946	      5.23797844	     44.98800099	     86.71243710	      0.00000000	      0.00000000
     12.12500000	      4.25617212	      4.41173762	      4.95751702	     -0.35833465	      1.06760912	      0.03771109	     40.09147119	    -13.26743162	     -1.03020368	     77.79015257	      1.35769429	    -19.84842484	    -23.52147027	      0.00000000	     66.42544562	     -2.67561632	     -1.74907897	     76.25819051	      1.33095651	     -6.64808917	    -10.98287262	      0.00000000	    -71.52884179	     -0.47675958	     -3.06234240	     87.67813184	     -9.23866083	      1.74910289	     47.66356706	     88.60637071	      0.00000000	      0.00000000	     89.89256288	     -1.46697994	      5.21342210	     44.89182411	     86.67269697	      0.00000000	      0.00000000
